<svg xmlns="http://www.w3.org/2000/svg" version="1.1" xmlns:xlink="http://www.w3.org/1999/xlink" xmlns:svgjs="http://svgjs.dev/svgjs" width="1920" height="1080" preserveAspectRatio="none" viewBox="0 0 1920 1080">
    <g mask="url(&quot;#SvgjsMask1080&quot;)" fill="none">
        <rect width="1920" height="1080" x="0" y="0" fill="rgba(33, 37, 41, 1)"></rect>
        <path d="M 83.923 94.641 l 34.641 20 a 4 4 90 0 1 1.4641 5.4641 l -20 34.641 a 4 4 90 0 1 -5.4641 1.4641 l -34.641 -20 a 4 4 90 0 1 -1.4641 -5.4641 l 20 -34.641 a 4 4 90 0 1 5.4641 -1.4641 z" fill="rgba(232, 158, 0, 0.31)" class="triangle-float2"></path>
        <path d="M 581.4455 48.1229 l 6.9459 39.3923 a 4 4 140 0 1 -3.2446 4.6338 l -39.3923 6.9459 a 4 4 140 0 1 -4.6338 -3.2446 l -6.9459 -39.3923 a 4 4 140 0 1 3.2446 -4.6338 l 39.3923 -6.9459 a 4 4 140 0 1 4.6338 3.2446 z" fill="rgba(232, 158, 0, 0.31)" class="triangle-float1"></path>
        <path d="M599.6735803599573 642.9042132137994L741.711726867285 415.59566291713116 514.4031765706169 273.5575164098034 372.3650300632891 500.86606670647166z" fill="rgba(232, 158, 0, 0.31)" class="triangle-float2"></path>
        <path d="M381.8033549601707 879.3824061066786L526.0304006115189 1009.2450213082815 655.8930158131218 865.0179756569333 511.6659701617736 735.1553604553304z" fill="rgba(232, 158, 0, 0.31)" class="triangle-float2"></path>
    </g>
    <defs>
        <mask id="SvgjsMask1080">
            <rect width="1920" height="1080" fill="#ffffff"></rect>
        </mask>
        <style>
            @keyframes float1 {
                    0%{transform: translate(0, 0)}
                    50%{transform: translate(-10px, 0)}
                    100%{transform: translate(0, 0)}
                }

                .triangle-float1 {
                    animation: float1 5s infinite;
                }

                @keyframes float2 {
                    0%{transform: translate(0, 0)}
                    50%{transform: translate(-5px, -5px)}
                    100%{transform: translate(0, 0)}
                }

                .triangle-float2 {
                    animation: float2 4s infinite;
                }

                @keyframes float3 {
                    0%{transform: translate(0, 0)}
                    50%{transform: translate(0, -10px)}
                    100%{transform: translate(0, 0)}
                }

                .triangle-float3 {
                    animation: float3 6s infinite;
                    background-color: "red";
                    padding: auto;
                }
        </style>
    </defs>
</svg>