<svg xmlns="http://www.w3.org/2000/svg" version="1.1" xmlns:xlink="http://www.w3.org/1999/xlink" xmlns:svgjs="http://svgjs.com/svgjs" width="1920" height="1080" preserveAspectRatio="none" viewBox="0 0 1920 1080"><g mask="url(&quot;#SvgjsMask4737&quot;)" fill="none"><rect width="1920" height="1080" x="0" y="0" fill="rgba(25, 25, 25, 1)"></rect><rect width="312" height="312" clip-path="url(&quot;#SvgjsClipPath4738&quot;)" x="1492.49" y="215.54" fill="url(#SvgjsPattern4739)" transform="rotate(244.48, 1648.49, 371.54)"></rect><circle r="120.70885844828119" cx="1491.93" cy="962.09" stroke="rgba(0, 121, 164, 1)" stroke-width="1.53"></circle><rect width="118.4" height="118.4" clip-path="url(&quot;#SvgjsClipPath4740&quot;)" x="-31.62" y="752.81" fill="url(#SvgjsPattern4741)" transform="rotate(72.48, 27.58, 812.01)"></rect><rect width="264" height="264" clip-path="url(&quot;#SvgjsClipPath4742&quot;)" x="980.42" y="140.54" fill="url(#SvgjsPattern4743)" transform="rotate(272.89, 1112.42, 272.54)"></rect><rect width="711.96" height="711.96" clip-path="url(&quot;#SvgjsClipPath4744&quot;)" x="-274.63" y="243.75" fill="url(#SvgjsPattern4745)" transform="rotate(250.48, 81.35, 599.73)"></rect><path d="M317.06 482.23a5.6 5.6 0 1 0 5.8 9.59 5.6 5.6 0 1 0-5.8-9.59zM325.35 495.92a5.6 5.6 0 1 0 5.79 9.59 5.6 5.6 0 1 0-5.79-9.59zM333.63 509.61a5.6 5.6 0 1 0 5.79 9.59 5.6 5.6 0 1 0-5.79-9.59zM341.91 523.3a5.6 5.6 0 1 0 5.8 9.59 5.6 5.6 0 1 0-5.8-9.59zM286.81 463.13a5.6 5.6 0 1 0 5.8 9.59 5.6 5.6 0 1 0-5.8-9.59zM295.09 476.82a5.6 5.6 0 1 0 5.8 9.59 5.6 5.6 0 1 0-5.8-9.59zM303.37 490.51a5.6 5.6 0 1 0 5.8 9.59 5.6 5.6 0 1 0-5.8-9.59zM311.66 504.2a5.6 5.6 0 1 0 5.79 9.59 5.6 5.6 0 1 0-5.79-9.59z" fill="rgba(77, 172, 43, 1)"></path><circle r="164.18540022573544" cx="1338.91" cy="506.12" stroke="rgba(0, 121, 164, 1)" stroke-width="1" stroke-dasharray="3, 3"></circle><circle r="90" cx="1195.07" cy="889.2" fill="rgba(0, 121, 164, 1)"></circle></g><defs><mask id="SvgjsMask4737"><rect width="1920" height="1080" fill="#ffffff"></rect></mask><pattern x="0" y="0" width="6" height="6" patternUnits="userSpaceOnUse" id="SvgjsPattern4739"><path d="M0 6L3 0L6 6" stroke="rgba(0, 121, 164, 1)" fill="none"></path></pattern><clipPath id="SvgjsClipPath4738"><circle r="78" cx="1648.49" cy="371.54"></circle></clipPath><pattern x="0" y="0" width="11.84" height="11.84" patternUnits="userSpaceOnUse" id="SvgjsPattern4741"><path d="M0 11.84L5.92 0L11.84 11.84" stroke="rgba(184, 44, 80, 1)" fill="none"></path></pattern><clipPath id="SvgjsClipPath4740"><circle r="29.6" cx="27.58" cy="812.01"></circle></clipPath><pattern x="0" y="0" width="6" height="6" patternUnits="userSpaceOnUse" id="SvgjsPattern4743"><path d="M3 1L3 5M1 3L5 3" stroke="rgba(184, 44, 80, 1)" fill="none" stroke-width="1.65"></path></pattern><clipPath id="SvgjsClipPath4742"><circle r="66" cx="1112.42" cy="272.54"></circle></clipPath><pattern x="0" y="0" width="711.96" height="6.98" patternUnits="userSpaceOnUse" id="SvgjsPattern4745"><rect width="711.96" height="3.49" x="0" y="0" fill="rgba(0, 121, 164, 1)"></rect><rect width="711.96" height="3.49" x="0" y="3.49" fill="rgba(0, 0, 0, 0)"></rect></pattern><clipPath id="SvgjsClipPath4744"><circle r="177.99" cx="81.35" cy="599.73"></circle></clipPath></defs></svg>