<svg xmlns="http://www.w3.org/2000/svg" version="1.1" xmlns:xlink="http://www.w3.org/1999/xlink" xmlns:svgjs="http://svgjs.com/svgjs" width="1920" height="1080" preserveAspectRatio="none" viewBox="0 0 1920 1080"><g mask="url(&quot;#SvgjsMask1089&quot;)" fill="none"><rect width="1920" height="1080" x="0" y="0" fill="rgba(32, 32, 32, 1)"></rect><path d="M432.46,486.347C475.315,485.939,515.704,461.763,534.474,423.235C551.433,388.425,535.932,349.268,515.164,316.588C496.25,286.825,467.722,263.188,432.46,262.707C396.42,262.215,365.369,284.04,345.751,314.276C323.873,347.995,308.934,389.317,327.022,425.212C346.617,464.097,388.919,486.762,432.46,486.347" fill="rgba(0, 0, 0, 0.59)" class="triangle-float3"></path><path d="M192.075,932.501C251.866,933.155,316.798,922.715,348.017,871.717C380.282,819.011,367.788,751.541,334.866,699.243C304.146,650.443,249.727,625.195,192.075,623.999C131.968,622.752,70.109,641.873,38.637,693.097C5.851,746.459,8.139,815.639,41.934,868.368C73.408,917.476,133.749,931.863,192.075,932.501" fill="rgba(0, 0, 0, 0.59)" class="triangle-float2"></path><path d="M1880.736,782.588C1982.86,787.6,2089.773,756.513,2143.7,669.644C2200.193,578.642,2188.003,464.058,2136.918,369.914C2083.086,270.707,1993.598,186.481,1880.736,185.027C1765.814,183.546,1662.697,259.599,1612.859,363.163C1568.486,455.373,1603.894,559.613,1658.975,645.855C1709.075,724.298,1787.771,778.026,1880.736,782.588" fill="rgba(0, 0, 0, 0.59)" class="triangle-float2"></path><path d="M1124.573,1031.725C1208.017,1027.999,1273.239,966.655,1312.851,893.118C1350.192,823.797,1354.812,742.347,1317.922,672.786C1278.48,598.413,1208.734,540.118,1124.573,538.098C1037.249,536.002,958.782,587.837,914.451,663.101C869.405,739.578,860.773,834.235,904.727,911.344C949.073,989.141,1035.114,1035.72,1124.573,1031.725" fill="rgba(0, 0, 0, 0.59)" class="triangle-float1"></path></g><defs><mask id="SvgjsMask1089"><rect width="1920" height="1080" fill="#ffffff"></rect></mask><style>
            @keyframes float1 {
                0%{transform: translate(0, 0)}
                50%{transform: translate(-10px, 0)}
                100%{transform: translate(0, 0)}
            }

            .triangle-float1 {
                animation: float1 5s infinite;
            }

            @keyframes float2 {
                0%{transform: translate(0, 0)}
                50%{transform: translate(-5px, -5px)}
                100%{transform: translate(0, 0)}
            }

            .triangle-float2 {
                animation: float2 4s infinite;
            }

            @keyframes float3 {
                0%{transform: translate(0, 0)}
                50%{transform: translate(0, -10px)}
                100%{transform: translate(0, 0)}
            }

            .triangle-float3 {
                animation: float3 6s infinite;
            }
        </style></defs></svg>